<?xml version="1.0" encoding="utf-8"?>
<!-- Generator: Adobe Illustrator 23.0.2, SVG Export Plug-In . SVG Version: 6.00 Build 0)  -->
<svg version="1.1" id="Warstwa_1" xmlns="http://www.w3.org/2000/svg" xmlns:xlink="http://www.w3.org/1999/xlink" x="0px" y="0px"
	 viewBox="0 0 200 200" style="enable-background:new 0 0 200 200;" xml:space="preserve">
<style type="text/css">
	.st0{fill:#D1D3D4;}
	.st1{fill:#1B1B1B;}
	.st2{fill:#FFFFFF;}
	.st3{fill:#535353;}
	.st4{fill:#636363;}
	.st5{fill:#ADADAD;}
</style>
<g>
	<path class="st1" d="M124.32,80c-0.19-0.02-0.4-0.03-0.62-0.02c-4.34,0.11-8.68-0.01-13.02,0.07c-0.22,0.01-0.44,0-0.63-0.02
		c0.2,0.02,0.4,0.04,0.63,0.03c4.35-0.08,8.69,0.04,13.03-0.07c0.27-0.01,0.52,0,0.73,0.02C124.4,80,124.36,80,124.32,80z
		 M121.88,62.6c0.09,0,0.19,0,0.27,0.01c0.35,0,0.71,0.01,1.06,0.03C122.78,62.61,122.33,62.6,121.88,62.6z M111.68,63.55
		c0.03-0.02,0.06-0.04,0.09-0.05V63.5C111.74,63.52,111.71,63.53,111.68,63.55z M111.16,63.89c0.03-0.02,0.06-0.04,0.09-0.06
		c0.02-0.02,0.03-0.03,0.05-0.04C111.24,63.81,111.21,63.85,111.16,63.89z M109.86,100.16c0.01,0,0.03,0,0.05-0.01
		c0.01-0.01,0.02-0.01,0.03-0.02C109.91,100.14,109.88,100.15,109.86,100.16z M108.98,79.63c0.11,0.12,0.26,0.2,0.44,0.26
		C109.25,79.83,109.1,79.74,108.98,79.63z M108.86,155.44v0.03c0-0.02,0-0.04,0.01-0.05c0-0.05,0.01-0.09,0.02-0.14
		C108.88,155.33,108.87,155.39,108.86,155.44z M85.07,78.75c0,0.07-0.01,0.14-0.03,0.19c0.01-0.03,0.01-0.06,0.02-0.08
		c0.01-0.07,0.03-0.15,0.03-0.22v-0.01c0.01-0.06,0.02-0.12,0.01-0.19C85.1,78.55,85.09,78.65,85.07,78.75z M85.1,78.44
		c0.01-0.02,0.01-0.04,0.01-0.06v-0.1C85.1,78.34,85.1,78.39,85.1,78.44z M84.54,79.87C84.54,79.87,84.54,79.87,84.54,79.87
		c0.07-0.05,0.13-0.11,0.19-0.19C84.67,79.75,84.6,79.81,84.54,79.87z M83.49,80.26c0.05-0.01,0.1-0.01,0.14-0.01
		c0.02-0.01,0.04-0.01,0.06-0.02C83.62,80.24,83.55,80.25,83.49,80.26z M74.57,80.22c-0.07,0.02-0.13,0.04-0.19,0.06
		c0.1-0.03,0.19-0.05,0.3-0.07c0-0.01,0-0.01,0.01-0.01C74.63,80.21,74.6,80.21,74.57,80.22z M75.39,80.16c-0.14,0-0.26,0-0.39,0.01
		c-0.03,0-0.06,0-0.08,0.01C75.07,80.17,75.22,80.17,75.39,80.16c1.65,0.06,3.31,0,4.98,0.02C78.72,80.15,77.05,80.21,75.39,80.16z
		 M73.5,81.05c-0.02,0.06-0.04,0.12-0.05,0.18C73.47,81.15,73.49,81.09,73.5,81.05L73.5,81.05z M73.44,81.22L73.44,81.22
		c-0.01,0.05-0.01,0.08-0.02,0.12C73.43,81.3,73.44,81.26,73.44,81.22L73.44,81.22z M73.36,81.8v0.08c0-0.08,0.01-0.16,0.02-0.23
		C73.37,81.69,73.37,81.74,73.36,81.8z M99.93,2.51c-53.84,0-97.5,43.65-97.5,97.51c0,53.84,43.66,97.49,97.5,97.49
		c53.84,0,97.5-43.65,97.5-97.49C197.43,46.16,153.76,2.51,99.93,2.51z M126.45,45.79c-0.1,3.68-0.12,7.36-0.08,11.05
		c0.01,1.16,0.03,2.32,0.06,3.48c0.01,0.23,0,0.44-0.02,0.63c-0.01,0.11-0.02,0.2-0.04,0.29c0,0.03,0,0.06-0.01,0.09
		c-0.01,0.04-0.02,0.07-0.03,0.11c-0.01,0.04-0.02,0.07-0.03,0.11c-0.01,0.05-0.02,0.09-0.04,0.13c-0.01,0.04-0.02,0.07-0.04,0.1
		c-0.02,0.05-0.04,0.1-0.07,0.14c0,0-0.01,0.01-0.01,0.02c-0.01,0.02-0.03,0.05-0.04,0.07c-0.01,0.01-0.02,0.02-0.03,0.04
		c-0.01,0.01-0.02,0.02-0.03,0.03c-0.03,0.05-0.06,0.09-0.11,0.13c-0.05,0.06-0.1,0.1-0.16,0.15c-0.06,0.04-0.13,0.08-0.2,0.12
		c-0.06,0.03-0.14,0.06-0.21,0.09c-0.02,0-0.04,0.01-0.06,0.02c-0.08,0.02-0.17,0.04-0.25,0.06c-0.31,0.06-0.68,0.07-1.11,0.05
		c-0.16-0.01-0.31-0.02-0.47-0.02c-0.09-0.01-0.18-0.01-0.27-0.01c-0.44-0.03-0.89-0.04-1.34-0.04c-1.2-0.03-2.4-0.02-3.61,0
		c-0.69,0.01-1.37,0.02-2.07,0.03c-0.62,0.01-1.2,0.04-1.74,0.11c-0.21,0.03-0.42,0.06-0.61,0.1c-0.05,0.01-0.11,0.01-0.16,0.03
		c-0.03,0-0.05,0-0.08,0.01c-0.12,0.02-0.22,0.05-0.34,0.08c-0.04,0-0.07,0.01-0.11,0.03c-0.07,0.01-0.15,0.03-0.21,0.05
		c-0.1,0.03-0.19,0.07-0.28,0.1c0,0-0.01,0-0.02,0c-0.1,0.04-0.2,0.07-0.3,0.11c-0.02,0.01-0.04,0.02-0.07,0.03
		c-0.02,0.01-0.03,0.02-0.05,0.03h-0.01c-0.03,0.01-0.07,0.02-0.1,0.05c-0.03,0.01-0.05,0.02-0.08,0.03h-0.01
		c-0.1,0.03-0.19,0.08-0.27,0.13c-0.03,0.02-0.06,0.03-0.09,0.06c-0.11,0.05-0.2,0.11-0.3,0.18c-0.01,0-0.01,0.01-0.01,0.01
		c0,0.01,0,0.01-0.01,0.01c-0.02,0.01-0.05,0.02-0.07,0.04c-0.05,0.02-0.09,0.06-0.14,0.1c-0.04,0.02-0.08,0.05-0.12,0.08
		l-0.05,0.05c-0.03,0.02-0.05,0.04-0.08,0.06c-0.05,0.04-0.1,0.08-0.15,0.13c-1.19,1.06-1.8,2.74-2.02,5.19
		c-0.24,2.83-0.1,5.66-0.24,8.5c-0.05,0.85,0.1,1.4,0.48,1.75c0.11,0.12,0.26,0.2,0.44,0.26c0.04,0.01,0.08,0.03,0.13,0.04
		c0.02,0,0.04,0.01,0.06,0.02c0.02,0.01,0.04,0.01,0.06,0.01c0.01,0,0.02,0.01,0.03,0.01h0.03c0.01,0.01,0.01,0.01,0.02,0.01
		c0.02,0.01,0.04,0.01,0.07,0.02c0.03,0,0.06,0.01,0.09,0.01c0.04,0.01,0.08,0.01,0.13,0.02c0.01,0,0.02,0,0.02,0
		c0.2,0.02,0.4,0.04,0.63,0.03c4.35-0.08,8.69,0.04,13.03-0.07c0.27-0.01,0.52,0,0.73,0.02c0.07,0.01,0.12,0.02,0.18,0.02
		c0.02,0,0.04,0,0.06,0.01c0.07,0.01,0.14,0.03,0.2,0.04c0,0,0.01,0,0.02,0.01c0.07,0.01,0.14,0.03,0.19,0.05
		c0.06,0.01,0.12,0.04,0.18,0.07c0.11,0.04,0.2,0.1,0.28,0.18c0.03,0.02,0.06,0.04,0.08,0.07c0.02,0.01,0.04,0.03,0.06,0.06
		c0.06,0.06,0.11,0.13,0.16,0.2c0.01,0.01,0.01,0.02,0.02,0.04c0,0,0,0.01,0.01,0.02c0.03,0.05,0.05,0.11,0.07,0.17
		c0.14,0.37,0.16,0.86,0.09,1.49c-0.59,5.22-1.07,10.44-1.5,15.68c-0.02,0.2-0.04,0.37-0.08,0.53c0,0.03-0.01,0.06-0.02,0.08
		c-0.01,0.06-0.02,0.11-0.04,0.15c-0.05,0.15-0.1,0.27-0.17,0.39c-0.02,0.04-0.04,0.07-0.06,0.1c-0.05,0.08-0.1,0.15-0.16,0.2
		c-0.04,0.04-0.08,0.08-0.13,0.12c0,0,0,0-0.01,0v0.01c-0.01,0-0.02,0.01-0.03,0.02c0,0-0.01,0.01-0.02,0.01
		c-0.04,0.03-0.08,0.06-0.13,0.09c-0.03,0.01-0.06,0.03-0.09,0.05c-0.03,0.01-0.07,0.03-0.1,0.05c-0.06,0.02-0.13,0.04-0.19,0.07
		c-0.08,0.02-0.16,0.04-0.23,0.06c-0.08,0.02-0.17,0.03-0.25,0.03c-0.06,0.01-0.11,0.01-0.16,0.01c-0.02,0.01-0.05,0.01-0.07,0.01
		h-0.14c-0.04,0.01-0.08,0.01-0.11,0.01h-0.11c-3.68-0.04-7.35,0.09-11.02-0.06c-0.27-0.01-0.53-0.01-0.74,0.01
		c-0.02,0-0.04,0-0.06,0.01c-0.02,0-0.04,0-0.06,0.01c-0.05-0.01-0.09,0-0.13,0.01c-0.03,0-0.06,0.01-0.08,0.02
		c-0.03,0-0.06,0-0.09,0.02c-0.04,0-0.07,0.01-0.11,0.02c-0.01,0-0.02,0-0.03,0.01c-0.03,0.01-0.06,0.02-0.08,0.03
		c-0.02,0-0.03,0.01-0.05,0.02c-0.03,0.01-0.06,0.02-0.09,0.04c-0.01,0-0.01,0-0.01,0c-0.06,0.02-0.12,0.06-0.17,0.09
		c-0.05,0.03-0.09,0.06-0.13,0.1c-0.01,0.01-0.01,0.01-0.01,0.02c-0.01,0.01-0.03,0.02-0.04,0.04c-0.03,0.03-0.06,0.06-0.09,0.09
		c-0.16,0.19-0.25,0.42-0.31,0.72c-0.07,0.3-0.09,0.68-0.09,1.13c0.09,16.95,0.06,33.89,0.06,50.84c0,0.89,0,1.55-0.06,2.05
		c-0.01,0.05-0.02,0.11-0.03,0.16v0.03c-0.01,0.05-0.02,0.11-0.03,0.16c-0.03,0.13-0.06,0.22-0.1,0.32v0.01c0,0,0,0.01-0.01,0.01
		c0,0.01,0,0.01-0.01,0.02v0.01c0,0.01-0.01,0.01-0.01,0.01l-0.01,0.01c-0.09,0.19-0.21,0.33-0.39,0.44
		c-0.04,0.02-0.07,0.05-0.11,0.06c-0.27,0.14-0.64,0.2-1.15,0.22c-0.14,0.01-0.28,0.02-0.45,0.02c-0.32,0.01-0.7,0.01-1.13,0.01
		c-5.93,0.02-11.87-0.06-17.77,0.04c-0.2,0-0.37,0-0.55-0.01c-0.1-0.01-0.19-0.02-0.27-0.03c-0.1-0.01-0.19-0.03-0.29-0.05
		c-0.08-0.01-0.15-0.03-0.21-0.06c-0.03,0-0.06-0.01-0.08-0.02c-0.06-0.02-0.12-0.04-0.18-0.07c-0.3-0.12-0.54-0.29-0.7-0.54
		c-0.03-0.03-0.06-0.07-0.09-0.12c-0.11-0.17-0.19-0.37-0.24-0.58c-0.05-0.18-0.09-0.37-0.11-0.58c-0.02-0.23-0.03-0.49-0.03-0.76
		c0.04-4.07,0.05-8.14,0.05-12.22c0-4.52-0.01-9.05-0.01-13.57v-25.29c-0.01-3.21-0.12-3.24-3.23-3.07
		c-2.16,0.12-4.34,0.03-6.51,0.07c-1.32,0.02-1.91-0.48-1.89-1.92c0.02-1.3,0.03-2.59,0.04-3.89v-0.06c0.02-2.62,0.02-5.25,0-7.87
		c0,0,0-0.01,0-0.02c-0.01-1.31-0.02-2.62-0.04-3.94c0-0.12,0-0.22,0.01-0.34c0-0.08,0.01-0.16,0.02-0.23
		c0-0.06,0.01-0.12,0.02-0.17c0.01-0.05,0.02-0.09,0.03-0.14c0.01-0.04,0.02-0.08,0.03-0.12c0.02-0.07,0.04-0.13,0.06-0.19
		c0.05-0.11,0.1-0.2,0.16-0.29c0.05-0.05,0.09-0.1,0.13-0.15c0.04-0.03,0.07-0.06,0.11-0.1c0.05-0.03,0.09-0.06,0.14-0.09
		c0.02-0.01,0.04-0.02,0.06-0.03c0.03-0.02,0.07-0.04,0.1-0.05c0.06-0.02,0.12-0.04,0.18-0.06c0.1-0.03,0.19-0.05,0.3-0.07
		c0-0.01,0-0.01,0.01-0.01c0.02,0,0.04,0,0.07-0.01h0.04c0.04,0,0.09-0.01,0.14-0.01c0.15-0.01,0.29-0.01,0.46-0.01
		c1.66,0.05,3.32-0.01,4.99,0.01c0.16,0,0.31,0,0.47,0.01c0.02-0.01,0.04-0.01,0.05,0c0.06-0.01,0.12-0.01,0.17,0
		c0.09,0,0.18,0,0.26,0.01c0.44,0.01,0.89,0.03,1.33,0.06c0.17,0.01,0.32,0.02,0.47,0.02c0.09,0,0.17-0.01,0.24-0.01
		c0.05,0,0.09-0.01,0.13-0.01c0.05-0.01,0.1-0.01,0.14-0.01c0.02-0.01,0.04-0.01,0.06-0.02c0.01,0,0.02,0,0.02,0
		c0.01,0,0.03,0,0.04-0.01c0.03,0,0.06,0,0.09-0.01c0.01,0,0.02,0,0.02-0.01c0.03-0.01,0.06-0.01,0.08-0.02
		c0.04,0,0.08-0.02,0.11-0.03c0.06-0.02,0.1-0.04,0.15-0.06c0.05-0.02,0.09-0.04,0.13-0.06c0.03-0.01,0.05-0.03,0.08-0.05
		c0.01,0,0.03-0.01,0.04-0.02c0.04-0.03,0.08-0.06,0.12-0.09c0.07-0.06,0.13-0.12,0.19-0.2c0.05-0.08,0.1-0.16,0.15-0.23
		c0.05-0.12,0.1-0.24,0.14-0.38c0.01-0.04,0.02-0.08,0.03-0.13c0.01-0.03,0.01-0.06,0.02-0.08c0.01-0.07,0.03-0.15,0.03-0.22v-0.01
		c0.01-0.06,0.02-0.12,0.01-0.19c0.01-0.02,0.01-0.04,0.01-0.06v-0.1c0.01-0.05,0.01-0.1,0.01-0.16c0-0.09-0.01-0.19-0.01-0.27
		v-0.01c-0.01-0.13-0.01-0.26-0.01-0.39c-0.03-0.73-0.06-1.45-0.08-2.18c0-0.19,0-0.36-0.01-0.55c-0.05-2.42-0.04-4.84,0.05-7.25
		c0.03-0.73,0.07-1.46,0.11-2.2c0.05-0.72,0.11-1.45,0.17-2.17c0.03-0.36,0.07-0.71,0.11-1.06c0.04-0.26,0.08-0.53,0.12-0.78
		c0-0.03,0.01-0.06,0.02-0.09c0.03-0.2,0.06-0.38,0.1-0.58c0-0.02,0.01-0.04,0.01-0.06c0.05-0.26,0.1-0.52,0.16-0.78
		c0.19-0.84,0.42-1.67,0.69-2.46c0.07-0.2,0.14-0.4,0.21-0.59c0.13-0.34,0.26-0.68,0.41-1.01c0.09-0.2,0.19-0.42,0.27-0.61
		c0.05-0.1,0.1-0.19,0.15-0.28c0.1-0.21,0.2-0.42,0.32-0.62c0.13-0.24,0.26-0.49,0.41-0.73c0.14-0.24,0.28-0.48,0.44-0.71
		c0.15-0.23,0.3-0.46,0.46-0.68c0.16-0.22,0.32-0.45,0.49-0.66c0.13-0.17,0.26-0.33,0.4-0.49c0.2-0.26,0.44-0.53,0.67-0.78
		c0.15-0.17,0.29-0.32,0.46-0.49c0.27-0.27,0.56-0.55,0.85-0.81c0.17-0.15,0.33-0.29,0.5-0.43c2.76-2.33,6.2-3.91,10.14-4.55
		c0.17-0.03,0.33-0.05,0.51-0.08c0.03,0,0.06-0.01,0.1-0.01c0.35-0.05,0.7-0.09,1.06-0.12c0.13-0.02,0.26-0.03,0.4-0.04
		c0.43-0.03,0.87-0.06,1.32-0.07c5.92-0.17,11.85-0.15,17.75-0.31c0.53-0.02,0.97,0.02,1.33,0.13c0.16,0.04,0.29,0.1,0.41,0.17
		c0.13,0.07,0.24,0.16,0.33,0.25c0.05,0.04,0.09,0.1,0.13,0.15c0.04,0.06,0.08,0.12,0.12,0.18c0.01,0.01,0.02,0.03,0.02,0.04
		c0.01,0.01,0.02,0.03,0.03,0.06c0.02,0.04,0.04,0.09,0.06,0.14c0.02,0.04,0.03,0.08,0.05,0.12c0,0,0,0,0,0.01
		c0.02,0.09,0.05,0.19,0.07,0.29c0,0.01,0,0.02,0,0.02c0.01,0.02,0.01,0.05,0.01,0.07c0.02,0.09,0.04,0.19,0.05,0.28
		c0.01,0.11,0.01,0.21,0.01,0.34c0.01,0.06,0.01,0.13,0.01,0.2V45.79z"/>
</g>
</svg>
