<?xml version="1.0" encoding="utf-8"?>
<!-- Generator: Adobe Illustrator 23.0.2, SVG Export Plug-In . SVG Version: 6.00 Build 0)  -->
<svg version="1.1" id="Warstwa_1" xmlns="http://www.w3.org/2000/svg" xmlns:xlink="http://www.w3.org/1999/xlink" x="0px" y="0px"
	 viewBox="0 0 200 200" style="enable-background:new 0 0 200 200;" xml:space="preserve">
<style type="text/css">
	.st0{fill:#D1D3D4;}
	.st1{fill:#1B1B1B;}
	.st2{fill:#FFFFFF;}
	.st3{fill:#535353;}
	.st4{fill:#636363;}
	.st5{fill:#ADADAD;}
</style>
<path class="st3" d="M82.91,100.09c0.05-9.57,7.83-17.32,17.35-17.27c9.57,0.06,17.32,7.84,17.27,17.35
	c-0.06,9.57-7.84,17.33-17.35,17.27C90.6,117.38,82.85,109.6,82.91,100.09z"/>
<path class="st3" d="M141.35,71.02c-2.89-8.12-9.89-13.05-18.69-13.06c-14.95-0.03-29.89-0.05-44.84,0.04
	c-2.23,0.01-4.56,0.32-6.67,1.03c-8.2,2.76-13.09,9.86-13.1,18.72c-0.02,14.91-0.05,29.83,0.04,44.74c0.01,2.23,0.32,4.56,1.02,6.67
	c2.73,8.16,9.81,13.09,18.6,13.12c15.02,0.03,30.03,0.03,45.05,0c6.68-0.01,12.08-2.68,16.05-8.09c2.55-3.49,3.59-7.46,3.58-11.75
	c-0.01-7.41,0-14.81,0-22.22c0-7.44,0.01-14.88,0-22.33C142.38,75.57,142.15,73.25,141.35,71.02z M100.21,126.55
	c-14.53-0.02-26.46-11.96-26.41-26.46c0.05-14.54,12.01-26.46,26.48-26.38c14.53,0.09,26.34,11.92,26.36,26.41
	C126.65,114.63,114.7,126.57,100.21,126.55z M127.75,79.32c-3.67,0-6.73-3.06-6.68-6.69c0.04-3.65,3.02-6.6,6.66-6.6
	c3.68-0.01,6.73,3.05,6.68,6.68C134.36,76.35,131.37,79.32,127.75,79.32z M141.35,71.02c-2.89-8.12-9.89-13.05-18.69-13.06
	c-14.95-0.03-29.89-0.05-44.84,0.04c-2.23,0.01-4.56,0.32-6.67,1.03c-8.2,2.76-13.09,9.86-13.1,18.72
	c-0.02,14.91-0.05,29.83,0.04,44.74c0.01,2.23,0.32,4.56,1.02,6.67c2.73,8.16,9.81,13.09,18.6,13.12c15.02,0.03,30.03,0.03,45.05,0
	c6.68-0.01,12.08-2.68,16.05-8.09c2.55-3.49,3.59-7.46,3.58-11.75c-0.01-7.41,0-14.81,0-22.22c0-7.44,0.01-14.88,0-22.33
	C142.38,75.57,142.15,73.25,141.35,71.02z M100.21,126.55c-14.53-0.02-26.46-11.96-26.41-26.46c0.05-14.54,12.01-26.46,26.48-26.38
	c14.53,0.09,26.34,11.92,26.36,26.41C126.65,114.63,114.7,126.57,100.21,126.55z M127.75,79.32c-3.67,0-6.73-3.06-6.68-6.69
	c0.04-3.65,3.02-6.6,6.66-6.6c3.68-0.01,6.73,3.05,6.68,6.68C134.36,76.35,131.37,79.32,127.75,79.32z M100.04,2.53
	c-53.85,0-97.5,43.65-97.5,97.5c0,53.84,43.65,97.5,97.5,97.5c53.85,0,97.5-43.66,97.5-97.5C197.54,46.18,153.89,2.53,100.04,2.53z
	 M151.47,122.95c-0.01,5.9-1.6,11.36-5.02,16.17c-5.81,8.15-13.82,12.24-23.82,12.27c-14.95,0.04-29.9,0.03-44.85-0.01
	c-1.93-0.01-3.9-0.11-5.77-0.53c-11.6-2.56-19.03-9.62-22.22-21.08c-0.41-1.5-0.57-3.07-0.84-4.61V75.1
	c0.17-1.04,0.28-2.11,0.51-3.14c2.61-11.61,9.65-19.06,21.13-22.25c1.49-0.42,3.06-0.57,4.6-0.84h50.06
	c0.32,0.06,0.64,0.14,0.97,0.18c2.8,0.3,5.55,0.93,8.08,2.13c11.02,5.22,16.96,13.93,17.12,26.12
	C151.64,92.51,151.49,107.73,151.47,122.95z M122.66,57.97c-14.95-0.03-29.89-0.05-44.84,0.04c-2.23,0.01-4.56,0.32-6.67,1.03
	c-8.2,2.76-13.09,9.86-13.1,18.72c-0.02,14.91-0.05,29.83,0.04,44.74c0.01,2.23,0.32,4.56,1.02,6.67
	c2.73,8.16,9.81,13.09,18.6,13.12c15.02,0.03,30.03,0.03,45.05,0c6.68-0.01,12.08-2.68,16.05-8.09c2.55-3.49,3.59-7.46,3.58-11.75
	c-0.01-7.41,0-14.81,0-22.22c0-7.44,0.01-14.88,0-22.33c0-2.34-0.23-4.66-1.03-6.88C138.46,62.9,131.46,57.98,122.66,57.97z
	 M100.21,126.55c-14.53-0.02-26.46-11.96-26.41-26.46c0.05-14.54,12.01-26.46,26.48-26.38c14.53,0.09,26.34,11.92,26.36,26.41
	C126.65,114.63,114.7,126.57,100.21,126.55z M127.75,79.32c-3.67,0-6.73-3.06-6.68-6.69c0.04-3.65,3.02-6.6,6.66-6.6
	c3.68-0.01,6.73,3.05,6.68,6.68C134.36,76.35,131.37,79.32,127.75,79.32z"/>
<g>
	<path class="st3" d="M100.25,82.82c-9.52-0.05-17.3,7.69-17.35,17.27c-0.06,9.52,7.69,17.3,17.27,17.35
		c9.51,0.06,17.29-7.69,17.35-17.27C117.57,90.66,109.83,82.88,100.25,82.82z M100.25,82.82c-9.52-0.05-17.3,7.69-17.35,17.27
		c-0.06,9.52,7.69,17.3,17.27,17.35c9.51,0.06,17.29-7.69,17.35-17.27C117.57,90.66,109.83,82.88,100.25,82.82z M100.25,82.82
		c-9.52-0.05-17.3,7.69-17.35,17.27c-0.06,9.52,7.69,17.3,17.27,17.35c9.51,0.06,17.29-7.69,17.35-17.27
		C117.57,90.66,109.83,82.88,100.25,82.82z M100.25,82.82c-9.52-0.05-17.3,7.69-17.35,17.27c-0.06,9.52,7.69,17.3,17.27,17.35
		c9.51,0.06,17.29-7.69,17.35-17.27C117.57,90.66,109.83,82.88,100.25,82.82z M141.35,71.02c-2.89-8.12-9.89-13.05-18.69-13.06
		c-14.95-0.03-29.89-0.05-44.84,0.04c-2.23,0.01-4.56,0.32-6.67,1.03c-8.2,2.76-13.09,9.86-13.1,18.72
		c-0.02,14.91-0.05,29.83,0.04,44.74c0.01,2.23,0.32,4.56,1.02,6.67c2.73,8.16,9.81,13.09,18.6,13.12c15.02,0.03,30.03,0.03,45.05,0
		c6.68-0.01,12.08-2.68,16.05-8.09c2.55-3.49,3.59-7.46,3.58-11.75c-0.01-7.41,0-14.81,0-22.22c0-7.44,0.01-14.88,0-22.33
		C142.38,75.57,142.15,73.25,141.35,71.02z M100.21,126.55c-14.53-0.02-26.46-11.96-26.41-26.46c0.05-14.54,12.01-26.46,26.48-26.38
		c14.53,0.09,26.34,11.92,26.36,26.41C126.65,114.63,114.7,126.57,100.21,126.55z M127.75,79.32c-3.67,0-6.73-3.06-6.68-6.69
		c0.04-3.65,3.02-6.6,6.66-6.6c3.68-0.01,6.73,3.05,6.68,6.68C134.36,76.35,131.37,79.32,127.75,79.32z M100.25,82.82
		c-9.52-0.05-17.3,7.69-17.35,17.27c-0.06,9.52,7.69,17.3,17.27,17.35c9.51,0.06,17.29-7.69,17.35-17.27
		C117.57,90.66,109.83,82.88,100.25,82.82z M100.25,82.82c-9.52-0.05-17.3,7.69-17.35,17.27c-0.06,9.52,7.69,17.3,17.27,17.35
		c9.51,0.06,17.29-7.69,17.35-17.27C117.57,90.66,109.83,82.88,100.25,82.82z M100.25,82.82c-9.52-0.05-17.3,7.69-17.35,17.27
		c-0.06,9.52,7.69,17.3,17.27,17.35c9.51,0.06,17.29-7.69,17.35-17.27C117.57,90.66,109.83,82.88,100.25,82.82z M100.25,82.82
		c-9.52-0.05-17.3,7.69-17.35,17.27c-0.06,9.52,7.69,17.3,17.27,17.35c9.51,0.06,17.29-7.69,17.35-17.27
		C117.57,90.66,109.83,82.88,100.25,82.82z M100.25,82.82c-9.52-0.05-17.3,7.69-17.35,17.27c-0.06,9.52,7.69,17.3,17.27,17.35
		c9.51,0.06,17.29-7.69,17.35-17.27C117.57,90.66,109.83,82.88,100.25,82.82z M100.25,82.82c-9.52-0.05-17.3,7.69-17.35,17.27
		c-0.06,9.52,7.69,17.3,17.27,17.35c9.51,0.06,17.29-7.69,17.35-17.27C117.57,90.66,109.83,82.88,100.25,82.82z M100.25,82.82
		c-9.52-0.05-17.3,7.69-17.35,17.27c-0.06,9.52,7.69,17.3,17.27,17.35c9.51,0.06,17.29-7.69,17.35-17.27
		C117.57,90.66,109.83,82.88,100.25,82.82z M141.35,71.02c-2.89-8.12-9.89-13.05-18.69-13.06c-14.95-0.03-29.89-0.05-44.84,0.04
		c-2.23,0.01-4.56,0.32-6.67,1.03c-8.2,2.76-13.09,9.86-13.1,18.72c-0.02,14.91-0.05,29.83,0.04,44.74
		c0.01,2.23,0.32,4.56,1.02,6.67c2.73,8.16,9.81,13.09,18.6,13.12c15.02,0.03,30.03,0.03,45.05,0c6.68-0.01,12.08-2.68,16.05-8.09
		c2.55-3.49,3.59-7.46,3.58-11.75c-0.01-7.41,0-14.81,0-22.22c0-7.44,0.01-14.88,0-22.33C142.38,75.57,142.15,73.25,141.35,71.02z
		 M100.21,126.55c-14.53-0.02-26.46-11.96-26.41-26.46c0.05-14.54,12.01-26.46,26.48-26.38c14.53,0.09,26.34,11.92,26.36,26.41
		C126.65,114.63,114.7,126.57,100.21,126.55z M127.75,79.32c-3.67,0-6.73-3.06-6.68-6.69c0.04-3.65,3.02-6.6,6.66-6.6
		c3.68-0.01,6.73,3.05,6.68,6.68C134.36,76.35,131.37,79.32,127.75,79.32z M100.25,82.82c-9.52-0.05-17.3,7.69-17.35,17.27
		c-0.06,9.52,7.69,17.3,17.27,17.35c9.51,0.06,17.29-7.69,17.35-17.27C117.57,90.66,109.83,82.88,100.25,82.82z M100.25,82.82
		c-9.52-0.05-17.3,7.69-17.35,17.27c-0.06,9.52,7.69,17.3,17.27,17.35c9.51,0.06,17.29-7.69,17.35-17.27
		C117.57,90.66,109.83,82.88,100.25,82.82z M100.25,82.82c-9.52-0.05-17.3,7.69-17.35,17.27c-0.06,9.52,7.69,17.3,17.27,17.35
		c9.51,0.06,17.29-7.69,17.35-17.27C117.57,90.66,109.83,82.88,100.25,82.82z"/>
	<path class="st3" d="M100.25,82.82c-9.52-0.05-17.3,7.69-17.35,17.27c-0.06,9.52,7.69,17.3,17.27,17.35
		c9.51,0.06,17.29-7.69,17.35-17.27C117.57,90.66,109.83,82.88,100.25,82.82z M100.25,82.82c-9.52-0.05-17.3,7.69-17.35,17.27
		c-0.06,9.52,7.69,17.3,17.27,17.35c9.51,0.06,17.29-7.69,17.35-17.27C117.57,90.66,109.83,82.88,100.25,82.82z"/>
</g>
</svg>
