<?xml version="1.0" encoding="utf-8"?>
<!-- Generator: Adobe Illustrator 23.0.2, SVG Export Plug-In . SVG Version: 6.00 Build 0)  -->
<svg version="1.1" id="Warstwa_1" xmlns="http://www.w3.org/2000/svg" xmlns:xlink="http://www.w3.org/1999/xlink" x="0px" y="0px"
	 viewBox="0 0 200 200" style="enable-background:new 0 0 200 200;" xml:space="preserve">
<style type="text/css">
	.st0{fill:#D1D3D4;}
	.st1{fill:#1B1B1B;}
	.st2{fill:#FFFFFF;}
	.st3{fill:#535353;}
	.st4{fill:#636363;}
	.st5{fill:#ADADAD;}
</style>
<path class="st5" d="M114.43,85.59c0,7.93-6.43,14.36-14.34,14.38c-7.97,0.01-14.4-6.43-14.4-14.4c0.01-7.94,6.41-14.35,14.34-14.38
	C107.98,71.15,114.43,77.61,114.43,85.59z"/>
<path class="st5" d="M100.04,2.5c-53.85,0-97.5,43.65-97.5,97.5c0,53.85,43.65,97.5,97.5,97.5c53.85,0,97.5-43.65,97.5-97.5
	C197.54,46.15,153.89,2.5,100.04,2.5z M136.84,101c-3,7.72-7.07,14.88-11.61,21.77c-7.26,11.02-15.54,21.25-24.48,30.94
	c-0.2,0.22-0.37,0.48-0.58,0.76c-0.28-0.27-0.45-0.42-0.59-0.58c-10.63-11.51-20.38-23.71-28.46-37.18
	c-4.01-6.68-7.41-13.63-9.61-21.16c-4.4-15.05,1.39-31.68,13.55-41.28c8.3-6.55,17.77-9.39,28.3-8.63
	c17.17,1.23,31.92,14.07,35.76,30.88C141.03,84.98,139.92,93.06,136.84,101z"/>
</svg>
